<?xml version="1.0" encoding="iso-8859-1"?>
<!DOCTYPE svg PUBLIC "-//W3C//DTD SVG 20001102//EN" "http://www.w3.org/TR/2000/CR-SVG-20001102/DTD/svg-20001102.dtd">
<svg version="1.1"
xmlns="http://www.w3.org/2000/svg"
xmlns:xlink="http://www.w3.org/1999/xlink"
width="500" height="500" >
<g transform="translate(250 250)">
<g transform="scale(1 -1)">
<g id="turleGraphics">
<line x1="0" y1="0" x2="20" y2="0" style="stroke:rgb(0,0,0);stroke-width:2" />
<line x1="20" y1="0" x2="4" y2="12" style="stroke:rgb(0,0,0);stroke-width:2" />
<line x1="4" y1="12" x2="10" y2="-7" style="stroke:rgb(0,0,0);stroke-width:2" />
<line x1="10" y1="-7" x2="16" y2="12" style="stroke:rgb(0,0,0);stroke-width:2" />
<line x1="16" y1="12" x2="0" y2="0" style="stroke:rgb(0,0,0);stroke-width:2" />
<line x1="14" y1="14" x2="28" y2="28" style="stroke:rgb(0,0,0);stroke-width:2" />
<line x1="28" y1="28" x2="8" y2="25" style="stroke:rgb(0,0,0);stroke-width:2" />
<line x1="8" y1="25" x2="26" y2="16" style="stroke:rgb(0,0,0);stroke-width:2" />
<line x1="26" y1="16" x2="17" y2="34" style="stroke:rgb(0,0,0);stroke-width:2" />
<line x1="17" y1="34" x2="14" y2="14" style="stroke:rgb(0,0,0);stroke-width:2" />
<line x1="14" y1="34" x2="14" y2="54" style="stroke:rgb(0,0,0);stroke-width:2" />
<line x1="14" y1="54" x2="2" y2="38" style="stroke:rgb(0,0,0);stroke-width:2" />
<line x1="2" y1="38" x2="21" y2="44" style="stroke:rgb(0,0,0);stroke-width:2" />
<line x1="21" y1="44" x2="2" y2="50" style="stroke:rgb(0,0,0);stroke-width:2" />
<line x1="2" y1="50" x2="14" y2="34" style="stroke:rgb(0,0,0);stroke-width:2" />
<line x1="0" y1="48" x2="-14" y2="62" style="stroke:rgb(0,0,0);stroke-width:2" />
<line x1="-14" y1="62" x2="-11" y2="42" style="stroke:rgb(0,0,0);stroke-width:2" />
<line x1="-11" y1="42" x2="-2" y2="60" style="stroke:rgb(0,0,0);stroke-width:2" />
<line x1="-2" y1="60" x2="-20" y2="51" style="stroke:rgb(0,0,0);stroke-width:2" />
<line x1="-20" y1="51" x2="0" y2="48" style="stroke:rgb(0,0,0);stroke-width:2" />
<line x1="-20" y1="48" x2="-40" y2="48" style="stroke:rgb(0,0,0);stroke-width:2" />
<line x1="-40" y1="48" x2="-24" y2="36" style="stroke:rgb(0,0,0);stroke-width:2" />
<line x1="-24" y1="36" x2="-30" y2="55" style="stroke:rgb(0,0,0);stroke-width:2" />
<line x1="-30" y1="55" x2="-36" y2="36" style="stroke:rgb(0,0,0);stroke-width:2" />
<line x1="-36" y1="36" x2="-20" y2="48" style="stroke:rgb(0,0,0);stroke-width:2" />
<line x1="-34" y1="34" x2="-48" y2="20" style="stroke:rgb(0,0,0);stroke-width:2" />
<line x1="-48" y1="20" x2="-28" y2="23" style="stroke:rgb(0,0,0);stroke-width:2" />
<line x1="-28" y1="23" x2="-46" y2="32" style="stroke:rgb(0,0,0);stroke-width:2" />
<line x1="-46" y1="32" x2="-37" y2="14" style="stroke:rgb(0,0,0);stroke-width:2" />
<line x1="-37" y1="14" x2="-34" y2="34" style="stroke:rgb(0,0,0);stroke-width:2" />
<line x1="-34" y1="14" x2="-34" y2="-6" style="stroke:rgb(0,0,0);stroke-width:2" />
<line x1="-34" y1="-6" x2="-22" y2="10" style="stroke:rgb(0,0,0);stroke-width:2" />
<line x1="-22" y1="10" x2="-41" y2="4" style="stroke:rgb(0,0,0);stroke-width:2" />
<line x1="-41" y1="4" x2="-22" y2="-2" style="stroke:rgb(0,0,0);stroke-width:2" />
<line x1="-22" y1="-2" x2="-34" y2="14" style="stroke:rgb(0,0,0);stroke-width:2" />
<line x1="-20" y1="0" x2="-6" y2="-14" style="stroke:rgb(0,0,0);stroke-width:2" />
<line x1="-6" y1="-14" x2="-9" y2="6" style="stroke:rgb(0,0,0);stroke-width:2" />
<line x1="-9" y1="6" x2="-18" y2="-12" style="stroke:rgb(0,0,0);stroke-width:2" />
<line x1="-18" y1="-12" x2="0" y2="-3" style="stroke:rgb(0,0,0);stroke-width:2" />
<line x1="0" y1="-3" x2="-20" y2="0" style="stroke:rgb(0,0,0);stroke-width:2" />
<line x1="0" y1="120" x2="0" y2="140" style="stroke:rgb(0,0,0);stroke-width:2" />
<line x1="0" y1="140" x2="-12" y2="124" style="stroke:rgb(0,0,0);stroke-width:2" />
<line x1="-12" y1="124" x2="7" y2="130" style="stroke:rgb(0,0,0);stroke-width:2" />
<line x1="7" y1="130" x2="-12" y2="136" style="stroke:rgb(0,0,0);stroke-width:2" />
<line x1="-12" y1="136" x2="0" y2="120" style="stroke:rgb(0,0,0);stroke-width:2" />
<line x1="-14" y1="134" x2="-28" y2="148" style="stroke:rgb(0,0,0);stroke-width:2" />
<line x1="-28" y1="148" x2="-25" y2="128" style="stroke:rgb(0,0,0);stroke-width:2" />
<line x1="-25" y1="128" x2="-16" y2="146" style="stroke:rgb(0,0,0);stroke-width:2" />
<line x1="-16" y1="146" x2="-34" y2="137" style="stroke:rgb(0,0,0);stroke-width:2" />
<line x1="-34" y1="137" x2="-14" y2="134" style="stroke:rgb(0,0,0);stroke-width:2" />
<line x1="-34" y1="134" x2="-54" y2="134" style="stroke:rgb(0,0,0);stroke-width:2" />
<line x1="-54" y1="134" x2="-38" y2="122" style="stroke:rgb(0,0,0);stroke-width:2" />
<line x1="-38" y1="122" x2="-44" y2="141" style="stroke:rgb(0,0,0);stroke-width:2" />
<line x1="-44" y1="141" x2="-50" y2="122" style="stroke:rgb(0,0,0);stroke-width:2" />
<line x1="-50" y1="122" x2="-34" y2="134" style="stroke:rgb(0,0,0);stroke-width:2" />
<line x1="-48" y1="120" x2="-62" y2="106" style="stroke:rgb(0,0,0);stroke-width:2" />
<line x1="-62" y1="106" x2="-42" y2="109" style="stroke:rgb(0,0,0);stroke-width:2" />
<line x1="-42" y1="109" x2="-60" y2="118" style="stroke:rgb(0,0,0);stroke-width:2" />
<line x1="-60" y1="118" x2="-51" y2="100" style="stroke:rgb(0,0,0);stroke-width:2" />
<line x1="-51" y1="100" x2="-48" y2="120" style="stroke:rgb(0,0,0);stroke-width:2" />
<line x1="-48" y1="100" x2="-48" y2="80" style="stroke:rgb(0,0,0);stroke-width:2" />
<line x1="-48" y1="80" x2="-36" y2="96" style="stroke:rgb(0,0,0);stroke-width:2" />
<line x1="-36" y1="96" x2="-55" y2="90" style="stroke:rgb(0,0,0);stroke-width:2" />
<line x1="-55" y1="90" x2="-36" y2="84" style="stroke:rgb(0,0,0);stroke-width:2" />
<line x1="-36" y1="84" x2="-48" y2="100" style="stroke:rgb(0,0,0);stroke-width:2" />
<line x1="-34" y1="86" x2="-20" y2="72" style="stroke:rgb(0,0,0);stroke-width:2" />
<line x1="-20" y1="72" x2="-23" y2="92" style="stroke:rgb(0,0,0);stroke-width:2" />
<line x1="-23" y1="92" x2="-32" y2="74" style="stroke:rgb(0,0,0);stroke-width:2" />
<line x1="-32" y1="74" x2="-14" y2="83" style="stroke:rgb(0,0,0);stroke-width:2" />
<line x1="-14" y1="83" x2="-34" y2="86" style="stroke:rgb(0,0,0);stroke-width:2" />
<line x1="-14" y1="86" x2="6" y2="86" style="stroke:rgb(0,0,0);stroke-width:2" />
<line x1="6" y1="86" x2="-10" y2="98" style="stroke:rgb(0,0,0);stroke-width:2" />
<line x1="-10" y1="98" x2="-4" y2="79" style="stroke:rgb(0,0,0);stroke-width:2" />
<line x1="-4" y1="79" x2="2" y2="98" style="stroke:rgb(0,0,0);stroke-width:2" />
<line x1="2" y1="98" x2="-14" y2="86" style="stroke:rgb(0,0,0);stroke-width:2" />
<line x1="0" y1="100" x2="14" y2="114" style="stroke:rgb(0,0,0);stroke-width:2" />
<line x1="14" y1="114" x2="-6" y2="111" style="stroke:rgb(0,0,0);stroke-width:2" />
<line x1="-6" y1="111" x2="12" y2="102" style="stroke:rgb(0,0,0);stroke-width:2" />
<line x1="12" y1="102" x2="3" y2="120" style="stroke:rgb(0,0,0);stroke-width:2" />
<line x1="3" y1="120" x2="0" y2="100" style="stroke:rgb(0,0,0);stroke-width:2" />
<line x1="-120" y1="120" x2="-140" y2="120" style="stroke:rgb(0,0,0);stroke-width:2" />
<line x1="-140" y1="120" x2="-124" y2="108" style="stroke:rgb(0,0,0);stroke-width:2" />
<line x1="-124" y1="108" x2="-130" y2="127" style="stroke:rgb(0,0,0);stroke-width:2" />
<line x1="-130" y1="127" x2="-136" y2="108" style="stroke:rgb(0,0,0);stroke-width:2" />
<line x1="-136" y1="108" x2="-120" y2="120" style="stroke:rgb(0,0,0);stroke-width:2" />
<line x1="-134" y1="106" x2="-148" y2="92" style="stroke:rgb(0,0,0);stroke-width:2" />
<line x1="-148" y1="92" x2="-128" y2="95" style="stroke:rgb(0,0,0);stroke-width:2" />
<line x1="-128" y1="95" x2="-146" y2="104" style="stroke:rgb(0,0,0);stroke-width:2" />
<line x1="-146" y1="104" x2="-137" y2="86" style="stroke:rgb(0,0,0);stroke-width:2" />
<line x1="-137" y1="86" x2="-134" y2="106" style="stroke:rgb(0,0,0);stroke-width:2" />
<line x1="-134" y1="86" x2="-134" y2="66" style="stroke:rgb(0,0,0);stroke-width:2" />
<line x1="-134" y1="66" x2="-122" y2="82" style="stroke:rgb(0,0,0);stroke-width:2" />
<line x1="-122" y1="82" x2="-141" y2="76" style="stroke:rgb(0,0,0);stroke-width:2" />
<line x1="-141" y1="76" x2="-122" y2="70" style="stroke:rgb(0,0,0);stroke-width:2" />
<line x1="-122" y1="70" x2="-134" y2="86" style="stroke:rgb(0,0,0);stroke-width:2" />
<line x1="-120" y1="72" x2="-106" y2="58" style="stroke:rgb(0,0,0);stroke-width:2" />
<line x1="-106" y1="58" x2="-109" y2="78" style="stroke:rgb(0,0,0);stroke-width:2" />
<line x1="-109" y1="78" x2="-118" y2="60" style="stroke:rgb(0,0,0);stroke-width:2" />
<line x1="-118" y1="60" x2="-100" y2="69" style="stroke:rgb(0,0,0);stroke-width:2" />
<line x1="-100" y1="69" x2="-120" y2="72" style="stroke:rgb(0,0,0);stroke-width:2" />
<line x1="-100" y1="72" x2="-80" y2="72" style="stroke:rgb(0,0,0);stroke-width:2" />
<line x1="-80" y1="72" x2="-96" y2="84" style="stroke:rgb(0,0,0);stroke-width:2" />
<line x1="-96" y1="84" x2="-90" y2="65" style="stroke:rgb(0,0,0);stroke-width:2" />
<line x1="-90" y1="65" x2="-84" y2="84" style="stroke:rgb(0,0,0);stroke-width:2" />
<line x1="-84" y1="84" x2="-100" y2="72" style="stroke:rgb(0,0,0);stroke-width:2" />
<line x1="-86" y1="86" x2="-72" y2="100" style="stroke:rgb(0,0,0);stroke-width:2" />
<line x1="-72" y1="100" x2="-92" y2="97" style="stroke:rgb(0,0,0);stroke-width:2" />
<line x1="-92" y1="97" x2="-74" y2="88" style="stroke:rgb(0,0,0);stroke-width:2" />
<line x1="-74" y1="88" x2="-83" y2="106" style="stroke:rgb(0,0,0);stroke-width:2" />
<line x1="-83" y1="106" x2="-86" y2="86" style="stroke:rgb(0,0,0);stroke-width:2" />
<line x1="-86" y1="106" x2="-86" y2="126" style="stroke:rgb(0,0,0);stroke-width:2" />
<line x1="-86" y1="126" x2="-98" y2="110" style="stroke:rgb(0,0,0);stroke-width:2" />
<line x1="-98" y1="110" x2="-79" y2="116" style="stroke:rgb(0,0,0);stroke-width:2" />
<line x1="-79" y1="116" x2="-98" y2="122" style="stroke:rgb(0,0,0);stroke-width:2" />
<line x1="-98" y1="122" x2="-86" y2="106" style="stroke:rgb(0,0,0);stroke-width:2" />
<line x1="-100" y1="120" x2="-114" y2="134" style="stroke:rgb(0,0,0);stroke-width:2" />
<line x1="-114" y1="134" x2="-111" y2="114" style="stroke:rgb(0,0,0);stroke-width:2" />
<line x1="-111" y1="114" x2="-102" y2="132" style="stroke:rgb(0,0,0);stroke-width:2" />
<line x1="-102" y1="132" x2="-120" y2="123" style="stroke:rgb(0,0,0);stroke-width:2" />
<line x1="-120" y1="123" x2="-100" y2="120" style="stroke:rgb(0,0,0);stroke-width:2" />
<line x1="-120" y1="0" x2="-120" y2="-20" style="stroke:rgb(0,0,0);stroke-width:2" />
<line x1="-120" y1="-20" x2="-108" y2="-4" style="stroke:rgb(0,0,0);stroke-width:2" />
<line x1="-108" y1="-4" x2="-127" y2="-10" style="stroke:rgb(0,0,0);stroke-width:2" />
<line x1="-127" y1="-10" x2="-108" y2="-16" style="stroke:rgb(0,0,0);stroke-width:2" />
<line x1="-108" y1="-16" x2="-120" y2="0" style="stroke:rgb(0,0,0);stroke-width:2" />
<line x1="-106" y1="-14" x2="-92" y2="-28" style="stroke:rgb(0,0,0);stroke-width:2" />
<line x1="-92" y1="-28" x2="-95" y2="-8" style="stroke:rgb(0,0,0);stroke-width:2" />
<line x1="-95" y1="-8" x2="-104" y2="-26" style="stroke:rgb(0,0,0);stroke-width:2" />
<line x1="-104" y1="-26" x2="-86" y2="-17" style="stroke:rgb(0,0,0);stroke-width:2" />
<line x1="-86" y1="-17" x2="-106" y2="-14" style="stroke:rgb(0,0,0);stroke-width:2" />
<line x1="-86" y1="-14" x2="-66" y2="-14" style="stroke:rgb(0,0,0);stroke-width:2" />
<line x1="-66" y1="-14" x2="-82" y2="-2" style="stroke:rgb(0,0,0);stroke-width:2" />
<line x1="-82" y1="-2" x2="-76" y2="-21" style="stroke:rgb(0,0,0);stroke-width:2" />
<line x1="-76" y1="-21" x2="-70" y2="-2" style="stroke:rgb(0,0,0);stroke-width:2" />
<line x1="-70" y1="-2" x2="-86" y2="-14" style="stroke:rgb(0,0,0);stroke-width:2" />
<line x1="-72" y1="0" x2="-58" y2="14" style="stroke:rgb(0,0,0);stroke-width:2" />
<line x1="-58" y1="14" x2="-78" y2="11" style="stroke:rgb(0,0,0);stroke-width:2" />
<line x1="-78" y1="11" x2="-60" y2="2" style="stroke:rgb(0,0,0);stroke-width:2" />
<line x1="-60" y1="2" x2="-69" y2="20" style="stroke:rgb(0,0,0);stroke-width:2" />
<line x1="-69" y1="20" x2="-72" y2="0" style="stroke:rgb(0,0,0);stroke-width:2" />
<line x1="-72" y1="20" x2="-72" y2="40" style="stroke:rgb(0,0,0);stroke-width:2" />
<line x1="-72" y1="40" x2="-84" y2="24" style="stroke:rgb(0,0,0);stroke-width:2" />
<line x1="-84" y1="24" x2="-65" y2="30" style="stroke:rgb(0,0,0);stroke-width:2" />
<line x1="-65" y1="30" x2="-84" y2="36" style="stroke:rgb(0,0,0);stroke-width:2" />
<line x1="-84" y1="36" x2="-72" y2="20" style="stroke:rgb(0,0,0);stroke-width:2" />
<line x1="-86" y1="34" x2="-100" y2="48" style="stroke:rgb(0,0,0);stroke-width:2" />
<line x1="-100" y1="48" x2="-97" y2="28" style="stroke:rgb(0,0,0);stroke-width:2" />
<line x1="-97" y1="28" x2="-88" y2="46" style="stroke:rgb(0,0,0);stroke-width:2" />
<line x1="-88" y1="46" x2="-106" y2="37" style="stroke:rgb(0,0,0);stroke-width:2" />
<line x1="-106" y1="37" x2="-86" y2="34" style="stroke:rgb(0,0,0);stroke-width:2" />
<line x1="-106" y1="34" x2="-126" y2="34" style="stroke:rgb(0,0,0);stroke-width:2" />
<line x1="-126" y1="34" x2="-110" y2="22" style="stroke:rgb(0,0,0);stroke-width:2" />
<line x1="-110" y1="22" x2="-116" y2="41" style="stroke:rgb(0,0,0);stroke-width:2" />
<line x1="-116" y1="41" x2="-122" y2="22" style="stroke:rgb(0,0,0);stroke-width:2" />
<line x1="-122" y1="22" x2="-106" y2="34" style="stroke:rgb(0,0,0);stroke-width:2" />
<line x1="-120" y1="20" x2="-134" y2="6" style="stroke:rgb(0,0,0);stroke-width:2" />
<line x1="-134" y1="6" x2="-114" y2="9" style="stroke:rgb(0,0,0);stroke-width:2" />
<line x1="-114" y1="9" x2="-132" y2="18" style="stroke:rgb(0,0,0);stroke-width:2" />
<line x1="-132" y1="18" x2="-123" y2="0" style="stroke:rgb(0,0,0);stroke-width:2" />
<line x1="-123" y1="0" x2="-120" y2="20" style="stroke:rgb(0,0,0);stroke-width:2" />
</g>
</g>
</g>
</svg>
